
 
http://www.imdb.com/title/tt1656186/

Plot:A former thief frantically searches for his missing daughter, who has been kidnapped and locked in the trunk of a taxi.



Director:
Simon West

Writer:
David Guggenheim

Stars:
Nicolas Cage, Malin Akerman and Josh Lucas

Genres:
Action | Thriller

Thanks : Lum1x



Format : AVI
Format/Info : Audio Video Interleave
File size : 695 MiB
Duration : 1h 31mn
Overall bit rate : 1 060 Kbps
Writing application : VirtualDubMod 1.5.10.2 (build 2540/release)
Writing library : VirtualDub build 32842/release

Video
ID : 0
Format : MPEG-4 Visual
Format profile : Simple@L3
Format settings, BVOP : No
Format settings, QPel : No
Format settings, GMC : No warppoints
Format settings, Matrix : Default (H.263)
Codec ID : XVID
Codec ID/Hint : XviD
Duration : 1h 31mn
Bit rate : 921 Kbps
Width : 640 pixels
Height : 356 pixels
Display aspect ratio : 16:9
Frame rate : 25.000 fps
Color space : YUV
Chroma subsampling : 4:2:0
Bit depth : 8 bits
Scan type : Progressive
Compression mode : Lossy
Bits/(Pixel*Frame) : 0.162
Stream size : 604 MiB (87%)
Writing library : XviD 1.3.0.dev55

Audio
ID : 1
Format : AC-3
Format/Info : Audio Coding 3
Mode extension : CM (complete main)
Format settings, Endianness : Big
Codec ID : 2000
Duration : 1h 31mn
Bit rate mode : Constant
Bit rate : 128 Kbps
Channel(s) : 2 channels
Channel positions : Front: L R
Sampling rate : 48.0 KHz
Bit depth : 16 bits
Compression mode : Lossy
Stream size : 83.9 MiB (12%)
Alignment : Aligned on interleaves
Interleave, duration : 32 ms (0.80 video frame)
Interleave, preload duration : 512 ms